<?xml version="1.0" standalone="no"?>
<!DOCTYPE svg PUBLIC "-//W3C//DTD SVG 20010904//EN"
 "http://www.w3.org/TR/2001/REC-SVG-20010904/DTD/svg10.dtd">
<svg version="1.0" xmlns="http://www.w3.org/2000/svg"
 width="179.000000pt" height="179.000000pt" viewBox="0 0 179.000000 179.000000"
 preserveAspectRatio="xMidYMid meet">
<metadata>
Created by potrace 1.11, written by Peter Selinger 2001-2013
</metadata>
<g transform="translate(0.000000,179.000000) scale(0.100000,-0.100000)"
fill="#000000" stroke="none">
<path d="M420 1635 c-7 -9 -15 -13 -17 -11 -3 2 -33 -6 -67 -19 -41 -16 -67
-20 -73 -14 -9 9 -48 -39 -78 -96 -6 -11 -17 -20 -25 -20 -26 -1 -41 -16 -35
-35 4 -13 -4 -24 -30 -40 -40 -25 -41 -27 -17 -53 16 -19 16 -20 -6 -34 -23
-16 -31 -63 -10 -63 6 0 2 -10 -9 -22 -34 -38 -36 -58 -9 -98 24 -36 24 -37 4
-49 -11 -7 -17 -19 -14 -26 3 -8 -4 -21 -15 -29 -20 -14 -20 -15 -2 -24 10 -6
23 -12 28 -14 6 -1 9 -6 8 -10 -2 -4 8 -10 22 -14 14 -3 25 -10 25 -14 0 -4 9
-10 20 -13 13 -3 20 -14 20 -29 1 -83 14 -108 68 -137 12 -6 22 -18 22 -26 0
-8 9 -20 20 -27 11 -7 20 -20 20 -29 0 -9 11 -29 25 -45 14 -16 24 -33 24 -39
-4 -39 1 -43 51 -40 38 2 50 0 50 -11 0 -8 9 -14 20 -14 18 0 19 -2 8 -20 -16
-25 2 -41 35 -32 20 5 20 4 4 -19 -22 -30 -24 -62 -2 -33 8 10 15 14 15 7 0
-6 9 -14 19 -18 13 -4 17 -12 14 -25 -3 -13 0 -20 8 -21 24 -1 51 -7 56 -13 3
-3 14 -1 24 5 15 7 17 6 13 -6 -10 -25 16 -47 53 -43 28 2 36 -2 48 -26 9 -16
13 -38 9 -48 -5 -17 -1 -19 23 -18 45 3 53 1 53 -15 0 -8 7 -15 15 -15 8 0 15
-5 15 -11 0 -19 41 -69 56 -69 16 0 94 77 94 93 0 5 11 6 25 3 17 -4 25 -2 25
7 0 7 11 24 25 37 14 13 25 29 25 36 0 6 8 11 17 10 9 0 22 9 28 21 15 29 54
63 72 63 7 0 13 5 13 10 0 6 7 10 15 10 8 0 15 5 15 11 0 17 59 71 70 64 11
-7 41 35 34 47 -3 4 11 8 31 8 33 0 35 2 29 25 -5 20 -1 26 20 35 19 7 26 17
26 35 0 16 6 25 15 25 8 0 15 4 15 9 0 5 10 11 23 13 12 2 26 13 32 26 5 12
14 22 19 22 5 0 15 8 22 18 10 13 15 14 25 5 20 -20 38 -3 54 55 10 32 21 62
26 68 5 6 7 18 3 27 -4 12 2 16 23 19 l29 3 -12 70 c-11 64 -10 71 6 85 31 26
35 59 9 86 -16 17 -19 27 -12 36 6 7 9 25 7 39 -3 17 3 32 16 44 19 18 19 18
0 45 -11 16 -20 33 -20 39 0 6 -4 11 -10 11 -14 0 -13 26 2 50 10 16 10 22 -2
34 -8 8 -22 16 -30 18 -15 3 -16 4 -73 47 -77 59 -137 93 -157 88 -10 -3 -25
1 -31 9 -11 14 -20 14 -108 0 -18 -3 -48 -17 -66 -31 -19 -14 -39 -25 -44 -25
-16 0 -55 -23 -64 -37 -4 -7 -12 -13 -17 -13 -19 0 -127 -70 -166 -108 -57
-54 -72 -57 -112 -21 -26 23 -31 33 -23 48 12 21 -3 41 -32 41 -16 0 -92 70
-99 92 -2 4 -12 9 -23 11 -11 1 -32 15 -47 30 -19 19 -36 27 -56 25 -15 -1
-33 2 -40 6 -7 4 -20 2 -28 -5 -11 -9 -18 -9 -26 -1 -17 17 -63 15 -78 -3z"/>
</g>
</svg>
